<?xml version="1.0" encoding="utf-8" ?>
<svg baseProfile="full" height="1024px" version="1.1" width="1920px" xmlns="http://www.w3.org/2000/svg" xmlns:ev="http://www.w3.org/2001/xml-events" xmlns:xlink="http://www.w3.org/1999/xlink"><defs /><polyline clip-path="url(#border_clip)" fill="none" points="1482.4074013850627,611.5955121856505 1504.458227307493,609.1109808017447 1525.4033327419422,601.7819714281159 1544.1924426427836,589.9759911980359 1559.8833925830986,574.285041257721 1571.6893728131786,555.4959313568796 1579.0183821868072,534.5508259224302 1581.5029135707132,512.5 1579.0183821868072,490.4491740775697 1571.6893728131786,469.5040686431204 1559.8833925830986,450.714958742279 1544.1924426427836,435.0240088019641 1525.4033327419422,423.218028571884 1504.458227307493,415.8890191982552 1482.4074013850627,413.40448781434935 1460.3565754626325,415.88901919825514 1439.411470028183,423.21802857188396 1420.6223601273418,435.024008801964 1404.9314101870268,450.7149587422789 1393.1254299569468,469.5040686431203 1385.796420583318,490.44917407756964 1383.3118891994122,512.4999999999999 1385.796420583318,534.5508259224302 1393.1254299569466,555.4959313568795 1404.9314101870268,574.285041257721 1420.6223601273416,589.9759911980359 1439.411470028183,601.781971428116 1460.3565754626325,609.1109808017447 1482.4074013850627,611.5955121856506" stroke="black" stroke-linecap="round" stroke-width="1" /><polyline clip-path="url(#border_clip)" fill="none" points="1394.795963718938,600.1114376661246 1399.8074862945086,595.0999150905541" stroke="black" stroke-linecap="round" stroke-width="1" /><polyline clip-path="url(#border_clip)" fill="none" points="1400.3237143574247,600.5239775718981 1406.6639083738598,606.035424145567" stroke="black" stroke-linecap="round" stroke-width="1" /><polyline clip-path="url(#border_clip)" fill="none" points="1409.9743884898169,608.6218546770004 1416.855953300772,613.44037823231" stroke="black" stroke-linecap="round" stroke-width="1" /><polyline clip-path="url(#border_clip)" fill="none" points="1420.418653869072,615.6666006274704 1427.766193610418,619.7394084120076" stroke="black" stroke-linecap="round" stroke-width="1" /><polyline clip-path="url(#border_clip)" fill="none" points="1430.0444563812966,624.7926979388378 1433.0397054948858,618.3693654860956" stroke="black" stroke-linecap="round" stroke-width="1" /><polyline clip-path="url(#border_clip)" fill="none" points="1435.3799398235271,623.2897565784291 1443.2227991021805,626.3003481873478" stroke="black" stroke-linecap="round" stroke-width="1" /><polyline clip-path="url(#border_clip)" fill="none" points="1447.2182441794664,627.5985469881748 1455.332831968786,629.7728442332345" stroke="black" stroke-linecap="round" stroke-width="1" /><polyline clip-path="url(#border_clip)" fill="none" points="1458.765921980048,634.124867816548 1460.1182546310613,627.1677194458497" stroke="black" stroke-linecap="round" stroke-width="1" /><polyline clip-path="url(#border_clip)" fill="none" points="1463.024970403836,634.8758529658056 1464.133678273715,627.8757469730242" stroke="black" stroke-linecap="round" stroke-width="1" /><polyline clip-path="url(#border_clip)" fill="none" points="1467.30763333414,635.4777419887795 1468.1713656331287,628.4432069247835" stroke="black" stroke-linecap="round" stroke-width="1" /><polyline clip-path="url(#border_clip)" fill="none" points="1471.9175452075428,632.3996047574979 1480.3068716011703,632.8392707234685" stroke="black" stroke-linecap="round" stroke-width="1" /><polyline clip-path="url(#border_clip)" fill="none" points="1484.569776940475,636.3824126008525 1484.4460853974358,629.2961288460846" stroke="black" stroke-linecap="round" stroke-width="1" /><polyline clip-path="url(#border_clip)" fill="none" points="1488.7064315647606,632.6926558589356 1497.0753032864914,631.9604744567814" stroke="black" stroke-linecap="round" stroke-width="1" /><polyline clip-path="url(#border_clip)" fill="none" points="1501.2354784313502,631.3757999694149 1509.4819708013397,629.7728442332345" stroke="black" stroke-linecap="round" stroke-width="1" /><polyline clip-path="url(#border_clip)" fill="none" points="1513.5582409457925,628.7565159390688 1521.5920036679454,626.3003481873478" stroke="black" stroke-linecap="round" stroke-width="1" /><polyline clip-path="url(#border_clip)" fill="none" points="1525.539708343275,624.8635011918543 1533.2727218320344,621.5810317124667" stroke="black" stroke-linecap="round" stroke-width="1" /><polyline clip-path="url(#border_clip)" fill="none" points="1606.3086847515015,512.4999999999998 1599.2213215569907,512.4999999999998" stroke="black" stroke-linecap="round" stroke-width="1" /><polyline clip-path="url(#border_clip)" fill="none" points="1602.6916845552018,508.29958027393513 1602.1056716185308,499.9192048444867" stroke="black" stroke-linecap="round" stroke-width="1" /><polyline clip-path="url(#border_clip)" fill="none" points="1605.102885978948,495.2562741809606 1598.0844965158497,496.2426444943709" stroke="black" stroke-linecap="round" stroke-width="1" /><polyline clip-path="url(#border_clip)" fill="none" points="1604.4263458524943,490.9847679328236 1597.4466556301263,492.2154756360141" stroke="black" stroke-linecap="round" stroke-width="1" /><polyline clip-path="url(#border_clip)" fill="none" points="1603.6011444377841,486.739474680793 1596.6686571335442,488.2130203460033" stroke="black" stroke-linecap="round" stroke-width="1" /><polyline clip-path="url(#border_clip)" fill="none" points="1599.1898680065294,483.38286083016885 1596.8742828333015,475.3074556511097" stroke="black" stroke-linecap="round" stroke-width="1" /><polyline clip-path="url(#border_clip)" fill="none" points="1595.506551623053,471.3352757925697 1592.359541774057,463.54615308774794" stroke="black" stroke-linecap="round" stroke-width="1" /><polyline clip-path="url(#border_clip)" fill="none" points="1593.7691372036438,458.1852523220153 1587.3990573604576,461.29214785330373" stroke="black" stroke-linecap="round" stroke-width="1" /><polyline clip-path="url(#border_clip)" fill="none" points="1591.8057412855915,454.33187086678 1585.5479710132813,457.65918634173823" stroke="black" stroke-linecap="round" stroke-width="1" /><polyline clip-path="url(#border_clip)" fill="none" points="1586.6401420557463,452.3211991154078 1582.188375394333,445.1968832119139" stroke="black" stroke-linecap="round" stroke-width="1" /><polyline clip-path="url(#border_clip)" fill="none" points="1579.7787466185443,441.75557667878303 1574.6066734074725,435.1356248511817" stroke="black" stroke-linecap="round" stroke-width="1" /><polyline clip-path="url(#border_clip)" fill="none" points="1574.48399898884,429.5938591323736 1569.2170617045604,434.3362307642021" stroke="black" stroke-linecap="round" stroke-width="1" /><polyline clip-path="url(#border_clip)" fill="none" points="1571.5345258235793,426.43093639889065 1566.4363033983125,431.35423256644066" stroke="black" stroke-linecap="round" stroke-width="1" /><polyline clip-path="url(#border_clip)" fill="none" points="1568.4764649861713,423.37287556148283 1563.5531688186215,428.4710979867498" stroke="black" stroke-linecap="round" stroke-width="1" /><polyline clip-path="url(#border_clip)" fill="none" points="1565.3135422526884,420.42340239622223 1560.57117062086,425.6903396805019" stroke="black" stroke-linecap="round" stroke-width="1" /><polyline clip-path="url(#border_clip)" fill="none" points="1559.7717765338803,420.30072797758976 1553.151824706279,415.12865476651797" stroke="black" stroke-linecap="round" stroke-width="1" /><polyline clip-path="url(#border_clip)" fill="none" points="1551.6921197744932,409.7811808014328 1547.728916571803,415.65687118002603" stroke="black" stroke-linecap="round" stroke-width="1" /><polyline clip-path="url(#border_clip)" fill="none" points="1548.0650783041556,407.4257525297533 1544.3093480147668,413.4361773936274" stroke="black" stroke-linecap="round" stroke-width="1" /><polyline clip-path="url(#border_clip)" fill="none" points="1542.586202269654,408.2672593293159 1535.1687012974023,404.32330410301154" stroke="black" stroke-linecap="round" stroke-width="1" /><polyline clip-path="url(#border_clip)" fill="none" points="1531.361248297314,402.5478596110051 1523.5721255924923,399.40084976200905" stroke="black" stroke-linecap="round" stroke-width="1" /><polyline clip-path="url(#border_clip)" fill="none" points="1519.5999457339522,398.0331185517607 1511.524540554893,395.7175333785328" stroke="black" stroke-linecap="round" stroke-width="1" /><polyline clip-path="url(#border_clip)" fill="none" points="1507.4311538716636,394.77250059939814 1499.1579420473959,393.3137101376635" stroke="black" stroke-linecap="round" stroke-width="1" /><polyline clip-path="url(#border_clip)" fill="none" points="1494.988196540575,392.80172976653165 1486.6078211111267,392.21571682986064" stroke="black" stroke-linecap="round" stroke-width="1" /><polyline clip-path="url(#border_clip)" fill="none" points="1482.407401385062,392.1423982308164 1474.0116794973442,392.43558329957426" stroke="black" stroke-linecap="round" stroke-width="1" /><polyline clip-path="url(#border_clip)" fill="none" points="1469.826606229549,392.80172976653176 1461.5075231694811,393.97090064375226" stroke="black" stroke-linecap="round" stroke-width="1" /><polyline clip-path="url(#border_clip)" fill="none" points="1457.3836488984605,394.7725005993983 1449.2323502809288,396.8048476042859" stroke="black" stroke-linecap="round" stroke-width="1" /><polyline clip-path="url(#border_clip)" fill="none" points="1445.214857036172,398.033118551761 1437.3206501945992,400.90637486523417" stroke="black" stroke-linecap="round" stroke-width="1" /><polyline clip-path="url(#border_clip)" fill="none" points="1433.4535544728103,402.5478596110055 1425.9029299893214,406.23054523562627" stroke="black" stroke-linecap="round" stroke-width="1" /><polyline clip-path="url(#border_clip)" fill="none" points="1422.2286005004703,408.2672593293164 1415.1042845969764,412.71902599072996" stroke="black" stroke-linecap="round" stroke-width="1" /><polyline clip-path="url(#border_clip)" fill="none" points="1411.6629780638455,415.12865476651854 1405.043026236244,420.3007279775904" stroke="black" stroke-linecap="round" stroke-width="1" /><polyline clip-path="url(#border_clip)" fill="none" points="1369.1371628103896,508.95631840274524 1369.1371628103896,516.0436815972561" stroke="black" stroke-linecap="round" stroke-width="1" /><polyline clip-path="url(#border_clip)" fill="none" points="1365.593481213134,512.5000000000007 1362.0497996158788,512.5000000000007" stroke="black" stroke-linecap="round" stroke-width="1" /><polyline clip-path="url(#border_clip)" fill="none" points="1358.5061180186233,508.95631840274524 1358.5061180186233,516.0436815972562" stroke="black" stroke-linecap="round" stroke-width="1" /><polyline clip-path="url(#border_clip)" fill="none" points="1354.9624364213678,508.9563184027453 1354.9624364213678,516.0436815972562" stroke="black" stroke-linecap="round" stroke-width="1" /><polyline clip-path="url(#border_clip)" fill="none" points="1351.4187548241125,512.5000000000007 1347.875073226857,512.5000000000008" stroke="black" stroke-linecap="round" stroke-width="1" /><polyline clip-path="url(#border_clip)" fill="none" points="1344.3313916296015,512.5000000000008 1340.7877100323462,512.5000000000008" stroke="black" stroke-linecap="round" stroke-width="1" /><polyline clip-path="url(#border_clip)" fill="none" points="1337.2440284350907,508.95631840274535 1337.2440284350907,516.0436815972562" stroke="black" stroke-linecap="round" stroke-width="1" /><polyline clip-path="url(#border_clip)" fill="none" points="1333.7003468378352,512.5000000000008 1330.15666524058,512.5000000000008" stroke="black" stroke-linecap="round" stroke-width="1" /><polyline clip-path="url(#border_clip)" fill="none" points="1326.6129836433245,512.5000000000008 1323.069302046069,512.5000000000009" stroke="black" stroke-linecap="round" stroke-width="1" /><polyline clip-path="url(#border_clip)" fill="none" points="1319.5256204488135,508.9563184027454 1319.5256204488137,516.0436815972563" stroke="black" stroke-linecap="round" stroke-width="1" /><polyline clip-path="url(#border_clip)" fill="none" points="1315.9819388515582,508.95631840274547 1315.9819388515582,516.0436815972563" stroke="black" stroke-linecap="round" stroke-width="1" /><polyline clip-path="url(#border_clip)" fill="none" points="1312.4382572543027,508.95631840274547 1312.4382572543027,516.0436815972563" stroke="black" stroke-linecap="round" stroke-width="1" /><polyline clip-path="url(#border_clip)" fill="none" points="1308.8945756570474,512.5000000000009 1305.350894059792,512.5000000000009" stroke="black" stroke-linecap="round" stroke-width="1" /><polyline clip-path="url(#border_clip)" fill="none" points="1301.8072124625364,508.9563184027455 1301.8072124625364,516.0436815972564" stroke="black" stroke-linecap="round" stroke-width="1" /><polyline clip-path="url(#border_clip)" fill="none" points="1298.2635308652812,512.500000000001 1294.7198492680257,512.500000000001" stroke="black" stroke-linecap="round" stroke-width="1" /><polyline clip-path="url(#border_clip)" fill="none" points="1291.1761676707702,512.500000000001 1287.6324860735149,512.500000000001" stroke="black" stroke-linecap="round" stroke-width="1" /><polyline clip-path="url(#border_clip)" fill="none" points="1284.0888044762594,508.95631840274564 1284.0888044762594,516.0436815972565" stroke="black" stroke-linecap="round" stroke-width="1" /><polyline clip-path="url(#border_clip)" fill="none" points="1280.5451228790039,512.5000000000011 1277.0014412817486,512.5000000000011" stroke="black" stroke-linecap="round" stroke-width="1" /><polyline clip-path="url(#border_clip)" fill="none" points="1273.457759684493,512.5000000000011 1269.9140780872376,512.5000000000011" stroke="black" stroke-linecap="round" stroke-width="1" /><polyline clip-path="url(#border_clip)" fill="none" points="1266.370396489982,512.5000000000011 1262.8267148927266,512.5000000000011" stroke="black" stroke-linecap="round" stroke-width="1" /><polyline clip-path="url(#border_clip)" fill="none" points="1259.2830332954713,508.95631840274575 1259.2830332954713,516.0436815972566" stroke="black" stroke-linecap="round" stroke-width="1" /><polyline clip-path="url(#border_clip)" fill="none" points="1255.7393516982158,508.9563184027458 1255.739351698216,516.0436815972566" stroke="black" stroke-linecap="round" stroke-width="1" /><polyline clip-path="url(#border_clip)" fill="none" points="1252.1956701009606,512.5000000000013 1248.651988503705,512.5000000000013" stroke="black" stroke-linecap="round" stroke-width="1" /><polyline clip-path="url(#border_clip)" fill="none" points="1245.1083069064496,512.5000000000013 1241.564625309194,512.5000000000014" stroke="black" stroke-linecap="round" stroke-width="1" /><polyline clip-path="url(#border_clip)" fill="none" points="1238.0209437119388,512.5000000000014 1234.4772621146833,512.5000000000014" stroke="black" stroke-linecap="round" stroke-width="1" /><polyline clip-path="url(#border_clip)" fill="none" points="1230.9335805174278,508.9563184027459 1230.9335805174278,516.0436815972569" stroke="black" stroke-linecap="round" stroke-width="1" /><polyline clip-path="url(#border_clip)" fill="none" points="1227.3898989201725,508.956318402746 1227.3898989201725,516.0436815972569" stroke="black" stroke-linecap="round" stroke-width="1" /><polyline clip-path="url(#border_clip)" fill="none" points="1223.846217322917,512.5000000000015 1220.3025357256615,512.5000000000015" stroke="black" stroke-linecap="round" stroke-width="1" /><polyline clip-path="url(#border_clip)" fill="none" points="1216.7588541284063,508.95631840274604 1216.7588541284063,516.043681597257" stroke="black" stroke-linecap="round" stroke-width="1" /><polyline clip-path="url(#border_clip)" fill="none" points="1781.2815072975868,525.4103407951188 1786.883094235056,524.1318151304124 1791.3752181806037,520.5494658242765 1793.8681588945299,515.3728210914223 1793.8681588945299,509.6271789085731 1791.3752181806035,504.45053417571904 1786.8830942350555,500.8681848695832 1781.2815072975866,499.5896592048768 1775.6799203601176,500.8681848695833 1771.1877964145697,504.4505341757192 1768.6948557006435,509.6271789085733 1768.6948557006435,515.3728210914226 1771.1877964145697,520.5494658242767 1775.6799203601176,524.1318151304125 1781.2815072975868,525.4103407951188" stroke="black" stroke-linecap="round" stroke-width="1" /><polyline clip-path="url(#border_clip)" fill="none" points="1754.196440113444,508.9563184027426 1754.196440113444,516.0436815972535" stroke="black" stroke-linecap="round" stroke-width="1" /><polyline clip-path="url(#border_clip)" fill="none" points="1750.6527585161884,512.4999999999981 1747.1090769189332,512.4999999999981" stroke="black" stroke-linecap="round" stroke-width="1" /><polyline clip-path="url(#border_clip)" fill="none" points="1743.565395321678,512.4999999999981 1740.0217137244224,512.4999999999982" stroke="black" stroke-linecap="round" stroke-width="1" /><polyline clip-path="url(#border_clip)" fill="none" points="1736.478032127167,508.95631840274274 1736.478032127167,516.0436815972536" stroke="black" stroke-linecap="round" stroke-width="1" /><polyline clip-path="url(#border_clip)" fill="none" points="1732.9343505299116,512.4999999999982 1729.3906689326564,512.4999999999982" stroke="black" stroke-linecap="round" stroke-width="1" /><polyline clip-path="url(#border_clip)" fill="none" points="1725.8469873354009,508.9563184027428 1725.8469873354009,516.0436815972537" stroke="black" stroke-linecap="round" stroke-width="1" /><polyline clip-path="url(#border_clip)" fill="none" points="1722.3033057381454,512.4999999999983 1718.75962414089,512.4999999999983" stroke="black" stroke-linecap="round" stroke-width="1" /><polyline clip-path="url(#border_clip)" fill="none" points="1715.2159425436348,508.9563184027429 1715.2159425436348,516.0436815972538" stroke="black" stroke-linecap="round" stroke-width="1" /><polyline clip-path="url(#border_clip)" fill="none" points="1711.6722609463795,512.4999999999984 1708.128579349124,512.4999999999984" stroke="black" stroke-linecap="round" stroke-width="1" /><polyline clip-path="url(#border_clip)" fill="none" points="1704.5848977518685,508.95631840274297 1704.5848977518688,516.0436815972539" stroke="black" stroke-linecap="round" stroke-width="1" /><polyline clip-path="url(#border_clip)" fill="none" points="1701.0412161546133,512.4999999999984 1697.497534557358,512.4999999999985" stroke="black" stroke-linecap="round" stroke-width="1" /><polyline clip-path="url(#border_clip)" fill="none" points="1693.9538529601027,508.9563184027431 1693.9538529601027,516.0436815972539" stroke="black" stroke-linecap="round" stroke-width="1" /><polyline clip-path="url(#border_clip)" fill="none" points="1690.4101713628474,508.95631840274314 1690.4101713628474,516.043681597254" stroke="black" stroke-linecap="round" stroke-width="1" /><polyline clip-path="url(#border_clip)" fill="none" points="1686.8664897655922,512.4999999999986 1683.3228081683367,512.4999999999986" stroke="black" stroke-linecap="round" stroke-width="1" /><polyline clip-path="url(#border_clip)" fill="none" points="1679.7791265710812,512.4999999999986 1676.235444973826,512.4999999999986" stroke="black" stroke-linecap="round" stroke-width="1" /><polyline clip-path="url(#border_clip)" fill="none" points="1672.6917633765706,512.4999999999987 1669.1480817793151,512.4999999999987" stroke="black" stroke-linecap="round" stroke-width="1" /><polyline clip-path="url(#border_clip)" fill="none" points="1665.6044001820596,512.4999999999987 1662.0607185848044,512.4999999999989" stroke="black" stroke-linecap="round" stroke-width="1" /><polyline clip-path="url(#border_clip)" fill="none" points="1658.517036987549,512.4999999999989 1654.9733553902936,512.4999999999989" stroke="black" stroke-linecap="round" stroke-width="1" /><polyline clip-path="url(#border_clip)" fill="none" points="1846.087278478375,512.4999999999973 1838.999915283864,512.4999999999973" stroke="black" stroke-linecap="round" stroke-width="1" /><polyline clip-path="url(#border_clip)" fill="none" points="1846.047800553565,510.23831120237026 1838.964754789218,510.4856566108066" stroke="black" stroke-linecap="round" stroke-width="1" /><polyline clip-path="url(#border_clip)" fill="none" points="1842.3943655099158,508.2265726564533 1841.9473984365447,503.97396502136365" stroke="black" stroke-linecap="round" stroke-width="1" /><polyline clip-path="url(#border_clip)" fill="none" points="1841.6128880851782,501.8619497837485 1840.7238510032257,497.6793591595523" stroke="black" stroke-linecap="round" stroke-width="1" /><polyline clip-path="url(#border_clip)" fill="none" points="1843.5768128094219,494.6371085900432 1836.7640020453355,496.590650640693" stroke="black" stroke-linecap="round" stroke-width="1" /><polyline clip-path="url(#border_clip)" fill="none" points="1842.9154582726078,492.4739153715594 1836.174975323118,494.66403104397085" stroke="black" stroke-linecap="round" stroke-width="1" /><polyline clip-path="url(#border_clip)" fill="none" points="1838.8490408131574,491.54713134020733 1837.247210962317,487.5824633349821" stroke="black" stroke-linecap="round" stroke-width="1" /><polyline clip-path="url(#border_clip)" fill="none" points="1839.528548600705,484.09101976892447 1833.158468757519,487.19791530021297" stroke="black" stroke-linecap="round" stroke-width="1" /><polyline clip-path="url(#border_clip)" fill="none" points="1838.5016069650299,482.0755333262076 1832.2438366927195,485.40284880116593" stroke="black" stroke-linecap="round" stroke-width="1" /><polyline clip-path="url(#border_clip)" fill="none" points="1837.4049514519907,480.097114409603 1831.2671148796974,483.6407960068585" stroke="black" stroke-linecap="round" stroke-width="1" /><polyline clip-path="url(#border_clip)" fill="none" points="1836.239918167403,478.15817341780837 1830.229493303529,481.91390370719716" stroke="black" stroke-linecap="round" stroke-width="1" /><polyline clip-path="url(#border_clip)" fill="none" points="1832.070081335568,478.2426742530965 1829.5566926778288,474.78329154546674" stroke="black" stroke-linecap="round" stroke-width="1" /><polyline clip-path="url(#border_clip)" fill="none" points="1830.9256081926694,470.8436532488055 1825.4963730011484,475.3993224955856" stroke="black" stroke-linecap="round" stroke-width="1" /><polyline clip-path="url(#border_clip)" fill="none" points="1826.8081121695216,471.5076608501572 1823.8377306185967,468.4317407106502" stroke="black" stroke-linecap="round" stroke-width="1" /><polyline clip-path="url(#border_clip)" fill="none" points="1822.2738464474264,466.9733951280623 1818.998215752117,464.2248146197551" stroke="black" stroke-linecap="round" stroke-width="1" /><polyline clip-path="url(#border_clip)" fill="none" points="1817.2904600794072,462.93792841599884 1813.7454687350807,460.54680156211793" stroke="black" stroke-linecap="round" stroke-width="1" /><polyline clip-path="url(#border_clip)" fill="none" points="1813.6843928879803,456.37655584559326 1810.140711290725,462.51439241788654" stroke="black" stroke-linecap="round" stroke-width="1" /><polyline clip-path="url(#border_clip)" fill="none" points="1810.0423162338964,458.40878546870914 1806.199043962601,456.5342963352669" stroke="black" stroke-linecap="round" stroke-width="1" /><polyline clip-path="url(#border_clip)" fill="none" points="1804.2306899820135,455.69877964112163 1800.2125340898178,454.2362904997211" stroke="black" stroke-linecap="round" stroke-width="1" /><polyline clip-path="url(#border_clip)" fill="none" points="1006.8212339985203,523.5619564739983 1011.9619815001242,522.2948760154159 1015.925045701834,518.7839075027553 1017.8025363551391,513.8333715105094 1017.1643429775822,508.57737617407594 1014.156667980898,504.2200066834212 1009.4685334604136,501.7594838768594 1004.1739345366265,501.75948387685946 999.4858000161421,504.2200066834214 996.4781250194579,508.5773761740762 995.8399316419013,513.8333715105098 997.7174222952065,518.7839075027555 1001.6804864969163,522.294876015416 1006.8212339985203,523.5619564739983" stroke="black" stroke-linecap="round" stroke-width="1" /><polyline clip-path="url(#border_clip)" fill="none" points="1032.0579168615345,516.0436815972608 1032.0579168615345,508.9563184027499" stroke="black" stroke-linecap="round" stroke-width="1" /><polyline clip-path="url(#border_clip)" fill="none" points="1035.60159845879,516.0436815972607 1035.60159845879,508.9563184027499" stroke="black" stroke-linecap="round" stroke-width="1" /><polyline clip-path="url(#border_clip)" fill="none" points="1039.1452800560455,516.0436815972607 1039.1452800560453,508.95631840274984" stroke="black" stroke-linecap="round" stroke-width="1" /><polyline clip-path="url(#border_clip)" fill="none" points="1042.688961653301,516.0436815972607 1042.6889616533008,508.9563184027498" stroke="black" stroke-linecap="round" stroke-width="1" /><polyline clip-path="url(#border_clip)" fill="none" points="1046.2326432505563,516.0436815972606 1046.2326432505563,508.95631840274973" stroke="black" stroke-linecap="round" stroke-width="1" /><polyline clip-path="url(#border_clip)" fill="none" points="1049.7763248478118,512.5000000000051 1053.3200064450673,512.5000000000051" stroke="black" stroke-linecap="round" stroke-width="1" /><polyline clip-path="url(#border_clip)" fill="none" points="1056.8636880423226,512.500000000005 1060.407369639578,512.500000000005" stroke="black" stroke-linecap="round" stroke-width="1" /><polyline clip-path="url(#border_clip)" fill="none" points="1063.9510512368336,512.500000000005 1067.494732834089,512.5000000000049" stroke="black" stroke-linecap="round" stroke-width="1" /><polyline clip-path="url(#border_clip)" fill="none" points="1071.0384144313443,512.5000000000049 1074.5820960285998,512.5000000000048" stroke="black" stroke-linecap="round" stroke-width="1" /><polyline clip-path="url(#border_clip)" fill="none" points="1078.1257776258553,516.0436815972603 1078.1257776258553,508.95631840274933" stroke="black" stroke-linecap="round" stroke-width="1" /><polyline clip-path="url(#border_clip)" fill="none" points="1081.6694592231108,516.0436815972602 1081.6694592231106,508.9563184027493" stroke="black" stroke-linecap="round" stroke-width="1" /><polyline clip-path="url(#border_clip)" fill="none" points="1085.213140820366,516.0436815972602 1085.213140820366,508.9563184027492" stroke="black" stroke-linecap="round" stroke-width="1" /><polyline clip-path="url(#border_clip)" fill="none" points="1088.7568224176216,512.5000000000047 1092.300504014877,512.5000000000045" stroke="black" stroke-linecap="round" stroke-width="1" /><polyline clip-path="url(#border_clip)" fill="none" points="1095.8441856121326,516.0436815972599 1095.8441856121324,508.9563184027491" stroke="black" stroke-linecap="round" stroke-width="1" /><polyline clip-path="url(#border_clip)" fill="none" points="1099.3878672093879,512.5000000000044 1102.9315488066434,512.5000000000044" stroke="black" stroke-linecap="round" stroke-width="1" /><polyline clip-path="url(#border_clip)" fill="none" points="1106.4752304038989,516.0436815972598 1106.4752304038986,508.95631840274893" stroke="black" stroke-linecap="round" stroke-width="1" /><polyline clip-path="url(#border_clip)" fill="none" points="1110.0189120011541,512.5000000000043 1113.5625935984096,512.5000000000043" stroke="black" stroke-linecap="round" stroke-width="1" /><polyline clip-path="url(#border_clip)" fill="none" points="1117.1062751956651,512.5000000000042 1120.6499567929206,512.5000000000042" stroke="black" stroke-linecap="round" stroke-width="1" /><polyline clip-path="url(#border_clip)" fill="none" points="1124.1936383901761,516.0436815972596 1124.193638390176,508.9563184027487" stroke="black" stroke-linecap="round" stroke-width="1" /><polyline clip-path="url(#border_clip)" fill="none" points="942.0154628177316,512.5000000000066 949.1028260122425,512.5000000000065" stroke="black" stroke-linecap="round" stroke-width="1" /><polyline clip-path="url(#border_clip)" fill="none" points="945.5964636247152,514.6380160934154 945.894744551684,518.9036320807386" stroke="black" stroke-linecap="round" stroke-width="1" /><polyline clip-path="url(#border_clip)" fill="none" points="942.6461481280128,521.5192201353454 949.6645375911111,520.532849821935" stroke="black" stroke-linecap="round" stroke-width="1" /><polyline clip-path="url(#border_clip)" fill="none" points="946.4898532109286,523.1380502162554 947.378890292881,527.3206408404516" stroke="black" stroke-linecap="round" stroke-width="1" /><polyline clip-path="url(#border_clip)" fill="none" points="947.9323338687282,529.3861203846358 949.2537004829492,533.4528686597965" stroke="black" stroke-linecap="round" stroke-width="1" /><polyline clip-path="url(#border_clip)" fill="none" points="950.0200136396445,535.4491826844343 951.7592326169948,539.3555324654351" stroke="black" stroke-linecap="round" stroke-width="1" /><polyline clip-path="url(#border_clip)" fill="none" points="949.601134331077,542.9244666737962 955.8589046033873,539.5971511988379" stroke="black" stroke-linecap="round" stroke-width="1" /><polyline clip-path="url(#border_clip)" fill="none" points="950.6977898441163,544.9028855904008 956.8356264164096,541.3592039931453" stroke="black" stroke-linecap="round" stroke-width="1" /><polyline clip-path="url(#border_clip)" fill="none" points="951.862823128704,546.8418265821955 957.8732479925781,543.0860962928067" stroke="black" stroke-linecap="round" stroke-width="1" /><polyline clip-path="url(#border_clip)" fill="none" points="953.0948147712423,548.7389273482526 958.9705051498355,544.7757241455622" stroke="black" stroke-linecap="round" stroke-width="1" /><polyline clip-path="url(#border_clip)" fill="none" points="957.259162414522,548.5089527818276 959.8917506991983,551.8785121278083" stroke="black" stroke-linecap="round" stroke-width="1" /><polyline clip-path="url(#border_clip)" fill="none" points="958.6611604844458,555.8635249657609 963.9280977687255,551.1211533339323" stroke="black" stroke-linecap="round" stroke-width="1" /><polyline clip-path="url(#border_clip)" fill="none" points="962.7529747091736,555.0562233210165 965.8288948486808,558.0266048719416" stroke="black" stroke-linecap="round" stroke-width="1" /><polyline clip-path="url(#border_clip)" fill="none" points="967.4427218707191,559.4294832993288 970.8122812166998,562.0620715840049" stroke="black" stroke-linecap="round" stroke-width="1" /><polyline clip-path="url(#border_clip)" fill="none" points="970.5823066502751,566.2264192272846 974.5455098529652,560.3507288486913" stroke="black" stroke-linecap="round" stroke-width="1" /><polyline clip-path="url(#border_clip)" fill="none" points="972.4794074163322,567.458410869823 976.2351377057207,561.4479860059488" stroke="black" stroke-linecap="round" stroke-width="1" /><polyline clip-path="url(#border_clip)" fill="none" points="974.4183484081268,568.6234441544105 977.9620300053822,562.4856075821172" stroke="black" stroke-linecap="round" stroke-width="1" /><polyline clip-path="url(#border_clip)" fill="none" points="978.0604250622106,566.5912145312946 981.9036973335059,568.4657036647368" stroke="black" stroke-linecap="round" stroke-width="1" /><polyline clip-path="url(#border_clip)" fill="none" points="982.5445648227949,572.5868647215827 985.1995378053919,566.0155759961814" stroke="black" stroke-linecap="round" stroke-width="1" /><polyline clip-path="url(#border_clip)" fill="none" points="985.8683653387312,570.0675335155773 989.935113613892,571.3889001297981" stroke="black" stroke-linecap="round" stroke-width="1" /><polyline clip-path="url(#border_clip)" fill="none" points="723.7675402087813,531.1482700374106 731.3524749629632,529.5360423855701 737.625905591178,524.9781282376805 741.5030989454792,518.2626323572621 742.3136530717125,510.5507249904038 739.9174157977989,503.17586498131465 734.7287183175304,497.41323262406587 727.644733563082,494.25923940509733 719.8903468544793,494.25923940509745 712.806362100031,497.41323262406627 707.6176646197626,503.1758649813152 705.2214273458494,510.5507249904045 706.0319814720829,518.2626323572626 709.9091748263844,524.978128237681 716.1826054545993,529.5360423855703 723.7675402087813,531.1482700374106" stroke="black" stroke-linecap="round" stroke-width="1" /><polyline clip-path="url(#border_clip)" fill="none" points="756.5905366351999,512.5000000000128 760.1342182324554,512.5000000000128" stroke="black" stroke-linecap="round" stroke-width="1" /><polyline clip-path="url(#border_clip)" fill="none" points="763.6778998297109,512.5000000000127 767.2215814269663,512.5000000000127" stroke="black" stroke-linecap="round" stroke-width="1" /><polyline clip-path="url(#border_clip)" fill="none" points="770.7652630242218,512.5000000000126 774.3089446214773,512.5000000000126" stroke="black" stroke-linecap="round" stroke-width="1" /><polyline clip-path="url(#border_clip)" fill="none" points="777.8526262187327,512.5000000000125 781.3963078159882,512.5000000000124" stroke="black" stroke-linecap="round" stroke-width="1" /><polyline clip-path="url(#border_clip)" fill="none" points="784.9399894132437,512.5000000000124 788.4836710104992,512.5000000000123" stroke="black" stroke-linecap="round" stroke-width="1" /><polyline clip-path="url(#border_clip)" fill="none" points="792.0273526077547,512.5000000000123 795.57103420501,512.5000000000122" stroke="black" stroke-linecap="round" stroke-width="1" /><polyline clip-path="url(#border_clip)" fill="none" points="799.1147158022656,512.5000000000122 802.658397399521,512.500000000012" stroke="black" stroke-linecap="round" stroke-width="1" /><polyline clip-path="url(#border_clip)" fill="none" points="806.2020789967765,516.0436815972674 806.2020789967764,508.95631840275655" stroke="black" stroke-linecap="round" stroke-width="1" /><polyline clip-path="url(#border_clip)" fill="none" points="809.7457605940319,512.5000000000119 813.2894421912874,512.5000000000118" stroke="black" stroke-linecap="round" stroke-width="1" /><polyline clip-path="url(#border_clip)" fill="none" points="816.8331237885429,512.5000000000118 820.3768053857983,512.5000000000117" stroke="black" stroke-linecap="round" stroke-width="1" /><polyline clip-path="url(#border_clip)" fill="none" points="823.9204869830538,512.5000000000117 827.4641685803093,512.5000000000116" stroke="black" stroke-linecap="round" stroke-width="1" /><polyline clip-path="url(#border_clip)" fill="none" points="831.0078501775647,512.5000000000115 834.5515317748202,512.5000000000115" stroke="black" stroke-linecap="round" stroke-width="1" /><polyline clip-path="url(#border_clip)" fill="none" points="838.0952133720757,516.0436815972669 838.0952133720756,508.9563184027559" stroke="black" stroke-linecap="round" stroke-width="1" /><polyline clip-path="url(#border_clip)" fill="none" points="841.6388949693312,516.0436815972668 841.6388949693311,508.95631840275587" stroke="black" stroke-linecap="round" stroke-width="1" /><polyline clip-path="url(#border_clip)" fill="none" points="845.1825765665867,516.0436815972668 845.1825765665866,508.9563184027558" stroke="black" stroke-linecap="round" stroke-width="1" /><polyline clip-path="url(#border_clip)" fill="none" points="848.7262581638421,512.5000000000111 852.2699397610975,512.5000000000111" stroke="black" stroke-linecap="round" stroke-width="1" /><polyline clip-path="url(#border_clip)" fill="none" points="855.8136213583531,516.0436815972665 855.813621358353,508.9563184027556" stroke="black" stroke-linecap="round" stroke-width="1" /><polyline clip-path="url(#border_clip)" fill="none" points="859.3573029556085,512.500000000011 862.9009845528639,512.5000000000109" stroke="black" stroke-linecap="round" stroke-width="1" /><polyline clip-path="url(#border_clip)" fill="none" points="866.4446661501194,512.5000000000108 869.9883477473749,512.5000000000108" stroke="black" stroke-linecap="round" stroke-width="1" /><polyline clip-path="url(#border_clip)" fill="none" points="873.5320293446304,516.0436815972662 873.5320293446302,508.95631840275524" stroke="black" stroke-linecap="round" stroke-width="1" /><polyline clip-path="url(#border_clip)" fill="none" points="658.9617690279923,512.5000000000148 666.0491322225032,512.5000000000147" stroke="black" stroke-linecap="round" stroke-width="1" /><polyline clip-path="url(#border_clip)" fill="none" points="662.5427698349758,514.6380160934235 662.8410507619448,518.9036320807468" stroke="black" stroke-linecap="round" stroke-width="1" /><polyline clip-path="url(#border_clip)" fill="none" points="663.1016490698228,521.0260349786483 663.8441742667088,525.2371046283562" stroke="black" stroke-linecap="round" stroke-width="1" /><polyline clip-path="url(#border_clip)" fill="none" points="664.3251965031418,527.3206408404598 665.5038307085047,531.4310267922469" stroke="black" stroke-linecap="round" stroke-width="1" /><polyline clip-path="url(#border_clip)" fill="none" points="666.2000066932101,533.4528686598046 667.8018365440507,537.4175366650298" stroke="black" stroke-linecap="round" stroke-width="1" /><polyline clip-path="url(#border_clip)" fill="none" points="668.7055388272556,539.3555324654433 670.7130143405238,543.1310447917812" stroke="black" stroke-linecap="round" stroke-width="1" /><polyline clip-path="url(#border_clip)" fill="none" points="668.8091293389649,546.8418265822036 674.819554202839,543.0860962928148" stroke="black" stroke-linecap="round" stroke-width="1" /><polyline clip-path="url(#border_clip)" fill="none" points="672.9789661707998,546.7573257469155 675.4923548285392,550.2167084545453" stroke="black" stroke-linecap="round" stroke-width="1" /><polyline clip-path="url(#border_clip)" fill="none" points="674.1234393136987,554.1563467512065 679.5526745052196,549.6006775044264" stroke="black" stroke-linecap="round" stroke-width="1" /><polyline clip-path="url(#border_clip)" fill="none" points="678.2409353368465,553.4923391498547 681.2113168877715,556.5682592893618" stroke="black" stroke-linecap="round" stroke-width="1" /><polyline clip-path="url(#border_clip)" fill="none" points="680.4040152430274,560.6600735140896 685.1463868748558,555.3931362298098" stroke="black" stroke-linecap="round" stroke-width="1" /><polyline clip-path="url(#border_clip)" fill="none" points="684.38902808098,559.429483299337 687.7585874269608,562.0620715840131" stroke="black" stroke-linecap="round" stroke-width="1" /><polyline clip-path="url(#border_clip)" fill="none" points="687.528612860536,566.2264192272928 691.4918160632262,560.3507288486994" stroke="black" stroke-linecap="round" stroke-width="1" /><polyline clip-path="url(#border_clip)" fill="none" points="691.3035787712874,564.453198437894 695.0067312724716,566.5912145313027" stroke="black" stroke-linecap="round" stroke-width="1" /><polyline clip-path="url(#border_clip)" fill="none" points="695.3585599777093,570.7470413031331 698.4654555089977,564.3769614599468" stroke="black" stroke-linecap="round" stroke-width="1" /><polyline clip-path="url(#border_clip)" fill="none" points="698.850003543767,568.4657036647449 702.8146715489922,570.0675335155854" stroke="black" stroke-linecap="round" stroke-width="1" /><polyline clip-path="url(#border_clip)" fill="none" points="704.8365134165501,570.7637095002906 708.9468993683373,571.9423437056533" stroke="black" stroke-linecap="round" stroke-width="1" /><polyline clip-path="url(#border_clip)" fill="none" points="710.2936627478358,575.8896095942063 711.767208413046,568.9571222899663" stroke="black" stroke-linecap="round" stroke-width="1" /><polyline clip-path="url(#border_clip)" fill="none" points="712.5141361409385,576.3212258987895 713.7448438441288,569.3415356764218" stroke="black" stroke-linecap="round" stroke-width="1" /><polyline clip-path="url(#border_clip)" fill="none" points="715.2415052301487,573.1658911389723 719.4941128652384,573.6128582123432" stroke="black" stroke-linecap="round" stroke-width="1" /><polyline clip-path="url(#border_clip)" fill="none" points="721.6295241153736,573.7247703738187 725.9055563021913,573.7247703738186" stroke="black" stroke-linecap="round" stroke-width="1" /><polyline clip-path="url(#border_clip)" fill="none" points="148.06315412761467,529.5826715077587 155.47504751550537,527.890955209097 161.41892451701722,523.150871473601 164.71752739513317,516.3012520183976 164.71752739513306,508.6987479816598 161.41892451701676,501.8491285264565 155.47504751550468,497.10904479096075 148.06315412761387,495.41732849229936 140.65126073972317,497.1090447909611 134.70738373821132,501.8491285264571 131.40878086009536,508.69874798166046 131.40878086009548,516.3012520183984 134.70738373821177,523.1508714736016 140.65126073972385,527.8909552090973 148.06315412761467,529.5826715077587" stroke="black" stroke-linecap="round" stroke-width="1" /><polyline clip-path="url(#border_clip)" fill="none" points="179.32055202436595,512.5000000000284 182.86423362162145,512.5000000000283" stroke="black" stroke-linecap="round" stroke-width="1" /><polyline clip-path="url(#border_clip)" fill="none" points="186.40791521887695,512.5000000000282 189.95159681613245,512.5000000000282" stroke="black" stroke-linecap="round" stroke-width="1" /><polyline clip-path="url(#border_clip)" fill="none" points="193.49527841338795,512.5000000000281 197.03896001064345,512.500000000028" stroke="black" stroke-linecap="round" stroke-width="1" /><polyline clip-path="url(#border_clip)" fill="none" points="200.58264160789895,512.500000000028 204.12632320515445,512.5000000000279" stroke="black" stroke-linecap="round" stroke-width="1" /><polyline clip-path="url(#border_clip)" fill="none" points="207.67000480240995,512.5000000000277 211.21368639966545,512.5000000000277" stroke="black" stroke-linecap="round" stroke-width="1" /><polyline clip-path="url(#border_clip)" fill="none" points="214.75736799692106,516.0436815972831 214.75736799692095,508.9563184027721" stroke="black" stroke-linecap="round" stroke-width="1" /><polyline clip-path="url(#border_clip)" fill="none" points="218.30104959417667,516.043681597283 218.30104959417656,508.95631840277207" stroke="black" stroke-linecap="round" stroke-width="1" /><polyline clip-path="url(#border_clip)" fill="none" points="221.8447311914323,516.0436815972829 221.84473119143217,508.956318402772" stroke="black" stroke-linecap="round" stroke-width="1" /><polyline clip-path="url(#border_clip)" fill="none" points="225.3884127886878,512.5000000000274 228.9320943859433,512.5000000000273" stroke="black" stroke-linecap="round" stroke-width="1" /><polyline clip-path="url(#border_clip)" fill="none" points="232.4757759831988,512.5000000000272 236.0194575804543,512.5000000000272" stroke="black" stroke-linecap="round" stroke-width="1" /><polyline clip-path="url(#border_clip)" fill="none" points="239.5631391777098,512.5000000000271 243.10682077496529,512.500000000027" stroke="black" stroke-linecap="round" stroke-width="1" /><polyline clip-path="url(#border_clip)" fill="none" points="246.65050237222079,512.500000000027 250.19418396947628,512.5000000000268" stroke="black" stroke-linecap="round" stroke-width="1" /><polyline clip-path="url(#border_clip)" fill="none" points="253.73786556673178,512.5000000000267 257.2815471639873,512.5000000000267" stroke="black" stroke-linecap="round" stroke-width="1" /><polyline clip-path="url(#border_clip)" fill="none" points="260.8252287612428,512.5000000000266 264.3689103584983,512.5000000000265" stroke="black" stroke-linecap="round" stroke-width="1" /><polyline clip-path="url(#border_clip)" fill="none" points="267.9125919557538,512.5000000000264 271.4562735530093,512.5000000000264" stroke="black" stroke-linecap="round" stroke-width="1" /><polyline clip-path="url(#border_clip)" fill="none" points="274.9999551502648,512.5000000000263 278.5436367475203,512.5000000000261" stroke="black" stroke-linecap="round" stroke-width="1" /><polyline clip-path="url(#border_clip)" fill="none" points="282.0873183447758,512.5000000000261 285.6309999420313,512.500000000026" stroke="black" stroke-linecap="round" stroke-width="1" /><polyline clip-path="url(#border_clip)" fill="none" points="289.1746815392869,516.0436815972814 289.1746815392868,508.9563184027705" stroke="black" stroke-linecap="round" stroke-width="1" /><polyline clip-path="url(#border_clip)" fill="none" points="292.7183631365425,516.0436815972813 292.7183631365424,508.9563184027704" stroke="black" stroke-linecap="round" stroke-width="1" /><polyline clip-path="url(#border_clip)" fill="none" points="296.262044733798,512.5000000000258 299.8057263310535,512.5000000000257" stroke="black" stroke-linecap="round" stroke-width="1" /><polyline clip-path="url(#border_clip)" fill="none" points="303.3494079283091,516.0436815972811 303.349407928309,508.95631840277014" stroke="black" stroke-linecap="round" stroke-width="1" /><polyline clip-path="url(#border_clip)" fill="none" points="83.25738294682549,512.5000000000306 90.34474614133637,512.5000000000304" stroke="black" stroke-linecap="round" stroke-width="1" /><polyline clip-path="url(#border_clip)" fill="none" points="83.29686087163543,514.7616887976576 90.37990663598237,514.5143433892212" stroke="black" stroke-linecap="round" stroke-width="1" /><polyline clip-path="url(#border_clip)" fill="none" points="83.41524654829516,517.0206220758711 90.4853452822739,516.5262326112779" stroke="black" stroke-linecap="round" stroke-width="1" /><polyline clip-path="url(#border_clip)" fill="none" points="87.1366646807777,518.9036320807626 87.7317733400223,523.1380502162793" stroke="black" stroke-linecap="round" stroke-width="1" /><polyline clip-path="url(#border_clip)" fill="none" points="88.13978818554176,525.237104628372 89.174253997822,529.3861203846598" stroke="black" stroke-linecap="round" stroke-width="1" /><polyline clip-path="url(#border_clip)" fill="none" points="86.42920315259266,532.5260846284685 93.16968610208266,530.335968956057" stroke="black" stroke-linecap="round" stroke-width="1" /><polyline clip-path="url(#border_clip)" fill="none" points="90.4956206120429,533.4528686598205 92.09745046288356,537.4175366650458" stroke="black" stroke-linecap="round" stroke-width="1" /><polyline clip-path="url(#border_clip)" fill="none" points="89.81611282449546,540.9089802311034 96.18619266768167,537.8020846998148" stroke="black" stroke-linecap="round" stroke-width="1" /><polyline clip-path="url(#border_clip)" fill="none" points="90.84305446017072,542.9244666738202 97.10082473248099,539.5971511988619" stroke="black" stroke-linecap="round" stroke-width="1" /><polyline clip-path="url(#border_clip)" fill="none" points="91.93970997321003,544.902885590425 98.0775465455032,541.3592039931693" stroke="black" stroke-linecap="round" stroke-width="1" /><polyline clip-path="url(#border_clip)" fill="none" points="96.10995568973465,544.9639614375251 98.50108254361567,548.5089527818516" stroke="black" stroke-linecap="round" stroke-width="1" /><polyline clip-path="url(#border_clip)" fill="none" points="96.99550954137646,552.3984166948119 102.58042795336746,548.0350002143103" stroke="black" stroke-linecap="round" stroke-width="1" /><polyline clip-path="url(#border_clip)" fill="none" points="101.13367082829177,551.8785121278323 103.99489483826721,555.0562233210406" stroke="black" stroke-linecap="round" stroke-width="1" /><polyline clip-path="url(#border_clip)" fill="none" points="105.50693080660426,556.5682592893776 108.6846419998127,559.4294832993528" stroke="black" stroke-linecap="round" stroke-width="1" /><polyline clip-path="url(#border_clip)" fill="none" points="108.16473743283336,563.5676445862683 112.52815391333456,557.9827261742771" stroke="black" stroke-linecap="round" stroke-width="1" /><polyline clip-path="url(#border_clip)" fill="none" points="112.05420134579356,562.0620715840289 115.59919269012016,564.4531984379098" stroke="black" stroke-linecap="round" stroke-width="1" /><polyline clip-path="url(#border_clip)" fill="none" points="115.66026853722053,568.6234441544345 119.2039501344758,562.4856075821411" stroke="black" stroke-linecap="round" stroke-width="1" /><polyline clip-path="url(#border_clip)" fill="none" points="119.30234519130431,566.5912145313185 123.14561746259972,568.4657036647608" stroke="black" stroke-linecap="round" stroke-width="1" /><polyline clip-path="url(#border_clip)" fill="none" points="123.78648495188872,572.5868647216067 126.44145793448558,566.0155759962053" stroke="black" stroke-linecap="round" stroke-width="1" /><polyline clip-path="url(#border_clip)" fill="none" points="127.11028546782495,570.0675335156012 131.1770337429857,571.388900129822" stroke="black" stroke-linecap="round" stroke-width="1" /><polyline clip-path="url(#border_clip)" fill="none" points="132.38521911776036,575.380762814769 134.09980745657958,568.5039245965693" stroke="black" stroke-linecap="round" stroke-width="1" /></svg>